<svg id="Layer_1" height="512" viewBox="0 0 150 150" width="512" xmlns="http://www.w3.org/2000/svg" data-name="Layer 1"><circle cx="75" cy="75" fill="#334d5c" r="64"/><path d="m65.81 47.16v-2.79a1.85 1.85 0 0 1 1.85-1.85h14.68a1.85 1.85 0 0 1 1.85 1.85v2.79h2.88v-2.79a4.73 4.73 0 0 0 -4.73-4.73h-14.68a4.73 4.73 0 0 0 -4.73 4.73v2.79z" fill="#b7b7ba"/><path d="m50 52.08 3.2 54.5a4 4 0 0 0 4 3.78h35.63a4 4 0 0 0 4-3.78l3.2-54.5z" fill="#d5d6db"/><rect fill="#e1e6e9" height="9.86" rx="1.74" width="56.1" x="46.95" y="45.85"/><g fill="#b6b7ba"><path d="m63.8 62.46a2.06 2.06 0 0 0 -2.06 2.06v37.48a2.07 2.07 0 1 0 4.13 0v-37.48a2.07 2.07 0 0 0 -2.07-2.06z"/><path d="m75 62.46a2.06 2.06 0 0 0 -2.06 2.06v37.48a2.06 2.06 0 1 0 4.12 0v-37.48a2.06 2.06 0 0 0 -2.06-2.06z"/><path d="m86.2 62.46a2.07 2.07 0 0 0 -2.07 2.06v37.48a2.07 2.07 0 1 0 4.13 0v-37.48a2.06 2.06 0 0 0 -2.06-2.06z"/></g></svg>